# File created by Blade
# Date/Time:  Thu Sep 25 18:58:07 2014
# Frame Rate: 120.000 fps
#------------------------------------------------------
:FULLY-SPECIFIED
:DEGREES
2343
root 1.748923 32.876286 0.806285 4.274366 2.056881 -0.171935
Spine -8.854425 7.275488 0.758037
Head -9.690784 -2.805438 6.409149
LeftShoulder 15.021002 -31.646342 35.982065
LeftArm 101.527326 9.483827 -36.255900
LeftForeArm 4.126107 -0.000000 20.977612
LeftHand -21.146326 -0.000000 -17.809380
LeftHandThumb1 -26.253704 0.000000 33.147579
RightShoulder 14.666237 46.217770 -19.513178
RightArm 57.708468 -34.227242 72.097107
RightForeArm -33.684294 -0.000000 25.153386
RightHand -1.565706 -0.000000 16.382564
RightHandThumb1 -24.326973 -0.000000 -32.862282
LeftUpLeg 0.740978 10.373868 3.916543
LeftLeg -3.616939 -0.000000 0.000000
LeftFoot -4.513769 -4.658607 -17.820500
LeftToeBase 8.974741 -0.000000 -0.000000
RightUpLeg 0.861654 -11.869657 -7.130207
RightLeg -0.910389 -0.000000 0.000000
RightFoot -2.979026 -0.853360 4.151017
RightToeBase -2.769179 -0.000000 0.000000
2344
root 1.750822 32.875826 0.807522 4.244594 2.090889 -0.177194
Spine -8.830470 7.255931 0.831558
Head -9.589116 -2.793287 6.320153
LeftShoulder 15.009932 -31.530915 35.950174
LeftArm 101.531741 9.457268 -36.293560
LeftForeArm 4.314309 -0.000000 20.961339
LeftHand -21.292820 0.000000 -17.911897
LeftHandThumb1 -26.253704 0.000000 33.147579
RightShoulder 14.733288 46.188862 -19.473851
RightArm 57.562907 -34.164775 72.203108
RightForeArm -33.796162 -0.000000 25.096747
RightHand -1.624435 -0.000000 16.415987
RightHandThumb1 -24.326973 -0.000000 -32.862282
LeftUpLeg 0.762227 10.336438 3.927729
LeftLeg -3.593033 -0.000000 0.000000
LeftFoot -4.531705 -4.707144 -17.824050
LeftToeBase 9.094259 -0.000000 -0.000000
RightUpLeg 0.902379 -11.849889 -7.132708
RightLeg -0.910477 -0.000000 0.000000
RightFoot -2.992840 -0.903722 4.137085
RightToeBase -2.752749 -0.000000 0.000000
2345
root 1.756858 32.875747 0.809259 4.207639 2.123491 -0.158343
Spine -8.791235 7.259719 0.878840
Head -9.509925 -2.782569 6.248438
LeftShoulder 15.016951 -31.477868 35.922085
LeftArm 101.507971 9.453373 -36.343429
LeftForeArm 4.398227 -0.000000 20.885061
LeftHand -21.254851 -0.000000 -17.918593
LeftHandThumb1 -26.253704 0.000000 33.147579
RightShoulder 14.705360 46.167194 -19.496822
RightArm 57.523980 -34.170994 72.171189
RightForeArm -33.801769 -0.000000 24.962715
RightHand -1.547868 -0.000000 16.398372
RightHandThumb1 -24.326973 -0.000000 -32.862282
LeftUpLeg 0.794046 10.315379 3.909642
LeftLeg -3.596160 -0.000000 0.000000
LeftFoot -4.515158 -4.690917 -17.807316
LeftToeBase 8.945298 -0.000000 -0.000000
RightUpLeg 0.949054 -11.833357 -7.169291
RightLeg -0.904688 -0.000000 0.000000
RightFoot -3.003428 -0.944360 4.142500
RightToeBase -2.761510 -0.000000 0.000000
2346
root 1.765032 32.876548 0.810507 4.173438 2.163394 -0.118924
Spine -8.749446 7.249674 0.907260
Head -9.456814 -2.783554 6.169326
LeftShoulder 14.981824 -31.414457 35.942165
LeftArm 101.467011 9.446782 -36.457603
LeftForeArm 4.541810 -0.000000 20.843603
LeftHand -21.216462 -0.000000 -17.914805
LeftHandThumb1 -26.253704 0.000000 33.147579
RightShoulder 14.671660 46.082672 -19.511704
RightArm 57.629146 -34.198794 71.981230
RightForeArm -33.601801 -0.000000 24.788208
RightHand -1.579348 -0.000000 16.248871
RightHandThumb1 -24.326973 -0.000000 -32.862282
LeftUpLeg 0.815395 10.280077 3.854199
LeftLeg -3.563529 -0.000000 0.000000
LeftFoot -4.532273 -4.648129 -17.857542
LeftToeBase 8.952508 -0.000000 -0.000000
RightUpLeg 0.995003 -11.809601 -7.229308
RightLeg -0.897773 -0.000000 0.000000
RightFoot -3.015428 -1.000761 4.173709
RightToeBase -2.756274 -0.000000 0.000000
2347
root 1.772071 32.875845 0.810828 4.131537 2.208561 -0.107230
Spine -8.681163 7.237103 0.974718
Head -9.442374 -2.756157 6.065663
LeftShoulder 14.921060 -31.473616 35.997031
LeftArm 101.283550 9.547286 -36.764028
LeftForeArm 4.834043 -0.000000 20.921545
LeftHand -21.345469 -0.000000 -18.018515
LeftHandThumb1 -26.253704 0.000000 33.147579
RightShoulder 14.596583 46.059407 -19.585273
RightArm 57.687865 -34.243034 71.808314
RightForeArm -33.566197 -0.000000 24.645203
RightHand -1.561255 -0.000000 16.168473
RightHandThumb1 -24.326973 -0.000000 -32.862282
LeftUpLeg 0.853056 10.242531 3.848441
LeftLeg -3.576887 -0.000000 0.000000
LeftFoot -4.515969 -4.699435 -17.842805
LeftToeBase 9.001955 -0.000000 -0.000000
RightUpLeg 1.043188 -11.784922 -7.258350
RightLeg -0.882210 -0.000000 0.000000
RightFoot -3.030262 -1.070782 4.165177
RightToeBase -2.770106 -0.000000 0.000000
2348
root 1.778608 32.875940 0.813279 4.088515 2.251816 -0.091983
Spine -8.627313 7.216613 1.034529
Head -9.426420 -2.766115 6.003503
LeftShoulder 14.848502 -31.534979 36.073722
LeftArm 101.064734 9.669495 -37.125805
LeftForeArm 5.160624 -0.000000 20.973810
LeftHand -21.313940 -0.000000 -18.038483
LeftHandThumb1 -26.253704 0.000000 33.147579
RightShoulder 14.536476 46.039686 -19.640267
RightArm 57.765247 -34.312309 71.593065
RightForeArm -33.665735 -0.000000 24.481583
RightHand -1.638329 -0.000000 16.142972
RightHandThumb1 -24.326973 -0.000000 -32.862282
LeftUpLeg 0.891056 10.233669 3.834858
LeftLeg -3.570301 -0.000000 0.000000
LeftFoot -4.492022 -4.761062 -17.849367
LeftToeBase 9.008933 -0.000000 -0.000000
RightUpLeg 1.095965 -11.803186 -7.292065
RightLeg -0.869912 -0.000000 0.000000
RightFoot -3.037287 -1.097925 4.179977
RightToeBase -2.781097 -0.000000 0.000000
2349
root 1.785522 32.876884 0.814840 4.062709 2.294727 -0.059016
Spine -8.597639 7.200655 1.063242
Head -9.405091 -2.773295 5.933765
LeftShoulder 14.794960 -31.638179 36.141956
LeftArm 100.783283 9.829085 -37.558802
LeftForeArm 5.518136 -0.000000 21.059044
LeftHand -21.339431 -0.000000 -18.252852
LeftHandThumb1 -26.253704 0.000000 33.147579
RightShoulder 14.446369 45.988588 -19.706647
RightArm 57.900417 -34.404017 71.329474
RightForeArm -33.625605 0.000000 24.263928
RightHand -1.690733 -0.000000 16.112697
RightHandThumb1 -24.326973 -0.000000 -32.862282
LeftUpLeg 0.909358 10.251891 3.794411
LeftLeg -3.561191 -0.000000 0.000000
LeftFoot -4.464754 -4.799901 -17.847180
LeftToeBase 8.991491 -0.000000 -0.000000
RightUpLeg 1.130189 -11.824261 -7.342659
RightLeg -0.855631 -0.000000 0.000000
RightFoot -3.052145 -1.103092 4.204786
RightToeBase -2.781868 -0.000000 0.000000
2350
root 1.791983 32.876946 0.816576 4.033041 2.343889 -0.043339
Spine -8.563998 7.170610 1.121355
Head -9.375405 -2.779485 5.847979
LeftShoulder 14.782495 -31.763890 36.148900
LeftArm 100.512934 9.966356 -37.933259
LeftForeArm 5.912262 -0.000000 21.027597
LeftHand -20.969393 -0.000000 -17.916922
LeftHandThumb1 -26.253704 0.000000 33.147579
RightShoulder 14.373563 45.973961 -19.788706
RightArm 57.999781 -34.495865 71.097671
RightForeArm -33.750722 -0.000000 23.964445
RightHand -1.540806 -0.000000 15.863274
RightHandThumb1 -24.326973 -0.000000 -32.862282
LeftUpLeg 0.931452 10.273395 3.775906
LeftLeg -3.554387 -0.000000 0.000000
LeftFoot -4.433631 -4.869819 -17.778866
LeftToeBase 8.914900 -0.000000 -0.000000
RightUpLeg 1.176143 -11.831014 -7.374180
RightLeg -0.854765 -0.000000 0.000000
RightFoot -3.060134 -1.142853 4.213599
RightToeBase -2.772585 -0.000000 0.000000
2351
root 1.797976 32.877471 0.819638 4.009514 2.394493 -0.038364
Spine -8.547312 7.145350 1.181258
Head -9.333751 -2.755882 5.757020
LeftShoulder 14.648322 -31.841879 36.225733
LeftArm 100.273916 10.129108 -38.384867
LeftForeArm 5.873715 -0.000000 21.045094
LeftHand -21.274645 -0.000000 -18.511585
LeftHandThumb1 -26.253704 0.000000 33.147579
RightShoulder 14.296788 45.947834 -19.857989
RightArm 58.144916 -34.605874 70.803271
RightForeArm -33.727263 -0.000000 23.725743
RightHand -1.709791 0.000000 15.898578
RightHandThumb1 -24.326973 -0.000000 -32.862282
LeftUpLeg 0.954630 10.284916 3.769709
LeftLeg -3.556764 -0.000000 0.000000
LeftFoot -4.420072 -4.936155 -17.810507
LeftToeBase 9.025402 -0.000000 -0.000000
RightUpLeg 1.208947 -11.876406 -7.395001
RightLeg -0.837814 -0.000000 0.000000
RightFoot -3.058855 -1.140625 4.228862
RightToeBase -2.782856 -0.000000 0.000000
2352
root 1.804712 32.877972 0.822771 3.987053 2.444847 -0.025662
Spine -8.550400 7.103732 1.226587
Head -9.282859 -2.832137 5.783490
LeftShoulder 14.635924 -31.832062 36.173135
LeftArm 100.155104 10.128325 -38.542748
LeftForeArm 5.940291 0.000000 20.872842
LeftHand -21.169395 -0.000000 -18.578209
LeftHandThumb1 -26.253704 0.000000 33.147579
RightShoulder 14.230564 45.887630 -19.919459
RightArm 58.294017 -34.713611 70.484003
RightForeArm -33.718380 -0.000000 23.441845
RightHand -1.743494 -0.000000 15.838461
RightHandThumb1 -24.326973 -0.000000 -32.862282
LeftUpLeg 0.977546 10.312846 3.752344
LeftLeg -3.561819 -0.000000 0.000000
LeftFoot -4.382574 -5.020921 -17.795011
LeftToeBase 9.025008 -0.000000 -0.000000
RightUpLeg 1.242161 -11.906770 -7.420914
RightLeg -0.824454 -0.000000 0.000000
RightFoot -3.058213 -1.170071 4.220991
RightToeBase -2.772553 -0.000000 0.000000
2353
root 1.810386 32.877602 0.825119 3.974209 2.495880 -0.018258
Spine -8.550110 7.064403 1.276626
Head -9.251045 -2.862279 5.723441
LeftShoulder 14.564145 -31.884169 36.210425
LeftArm 99.939519 10.197116 -38.893646
LeftForeArm 6.090341 -0.000000 20.824541
LeftHand -21.234195 -0.000000 -18.620739
LeftHandThumb1 -26.253704 0.000000 33.147579
RightShoulder 14.160712 45.867344 -20.012139
RightArm 58.379683 -34.783204 70.267072
RightForeArm -33.871826 -0.000000 23.162197
RightHand -1.869238 -0.000000 15.893370
RightHandThumb1 -24.326973 -0.000000 -32.862282
LeftUpLeg 0.988482 10.315507 3.742989
LeftLeg -3.563365 -0.000000 0.000000
LeftFoot -4.361116 -5.080065 -17.811084
LeftToeBase 9.047728 -0.000000 -0.000000
RightUpLeg 1.267855 -11.938188 -7.439901
RightLeg -0.815363 -0.000000 0.000000
RightFoot -3.076608 -1.190369 4.225740
RightToeBase -2.764801 -0.000000 0.000000
2354
root 1.817922 32.877864 0.827677 3.966787 2.536362 0.010399
Spine -8.574590 7.014922 1.301868
Head -9.204006 -2.955717 5.732163
LeftShoulder 14.482254 -31.919315 36.282439
LeftArm 99.648451 10.289900 -39.375348
LeftForeArm 6.412529 -0.000000 20.852521
LeftHand -21.319846 -0.000000 -18.765776
LeftHandThumb1 -26.253704 0.000000 33.147579
RightShoulder 14.186250 45.845275 -20.027857
RightArm 58.370990 -34.779023 70.146343
RightForeArm -33.803362 0.000000 22.813312
RightHand -1.719735 -0.000000 16.028034
RightHandThumb1 -24.326973 -0.000000 -32.862282
LeftUpLeg 0.996442 10.327823 3.703565
LeftLeg -3.568128 -0.000000 0.000000
LeftFoot -4.334307 -5.113654 -17.778894
LeftToeBase 8.939081 -0.000000 -0.000000
RightUpLeg 1.291700 -11.964737 -7.484260
RightLeg -0.817100 -0.000000 0.000000
RightFoot -3.083956 -1.188343 4.247871
RightToeBase -2.733744 -0.000000 0.000000
2355
root 1.822733 32.876661 0.830549 3.948461 2.569453 0.022521
Spine -8.575134 6.990769 1.341137
Head -9.182575 -3.040890 5.709979
LeftShoulder 14.355273 -31.747984 36.412511
LeftArm 99.531357 10.174219 -39.776273
LeftForeArm 6.783524 -0.000000 20.893374
LeftHand -21.480768 -0.000000 -18.814547
LeftHandThumb1 -26.253704 0.000000 33.147579
RightShoulder 14.152937 45.790700 -20.101428
RightArm 58.410503 -34.782968 69.963376
RightForeArm -33.831094 -0.000000 22.498121
RightHand -1.605194 -0.000000 15.965101
RightHandThumb1 -24.326973 -0.000000 -32.862282
LeftUpLeg 1.017322 10.335616 3.690800
LeftLeg -3.569540 -0.000000 0.000000
LeftFoot -4.322020 -5.181980 -17.798676
LeftToeBase 9.031224 -0.000000 -0.000000
RightUpLeg 1.323156 -11.975386 -7.507973
RightLeg -0.813717 -0.000000 0.000000
RightFoot -3.096828 -1.214411 4.249791
RightToeBase -2.779687 -0.000000 0.000000
